<?xml version="1.0" standalone="no"?>
<!DOCTYPE svg PUBLIC "-//W3C//DTD SVG 20010904//EN"
 "http://www.w3.org/TR/2001/REC-SVG-20010904/DTD/svg10.dtd">
<svg version="1.0" xmlns="http://www.w3.org/2000/svg"
 width="225.000000pt" height="225.000000pt" viewBox="0 0 225.000000 225.000000"
 preserveAspectRatio="xMidYMid meet">

<g transform="translate(0.000000,225.000000) scale(0.100000,-0.100000)"
fill="#000000" stroke="none">
<path d="M999 2170 c-241 -30 -441 -130 -619 -309 -119 -120 -183 -217 -236
-361 -54 -143 -67 -217 -67 -380 1 -161 22 -266 83 -412 99 -240 331 -465 573
-558 142 -55 238 -73 387 -73 206 0 379 46 552 149 113 67 285 239 352 352
102 171 149 345 149 547 0 202 -47 376 -149 547 -64 108 -230 276 -336 342
-202 125 -465 185 -689 156z m-77 -739 l3 -208 195 208 195 209 140 0 140 0
-212 -212 -211 -213 219 -298 c120 -164 219 -300 219 -302 0 -3 -62 -5 -137
-5 l-138 1 -138 197 c-76 108 -146 208 -157 222 l-19 25 -51 -50 -50 -49 0
-173 0 -173 -105 0 -105 0 0 515 0 515 105 0 105 0 2 -209z"/>
</g>
</svg>
