<?xml version="1.0" encoding="UTF-8"?>
<!DOCTYPE svg PUBLIC "-//W3C//DTD SVG 1.1//EN" "http://www.w3.org/Graphics/SVG/1.1/DTD/svg11.dtd">
<svg xmlns="http://www.w3.org/2000/svg" version="1.1" width="225px" height="225px" style="shape-rendering:geometricPrecision; text-rendering:geometricPrecision; image-rendering:optimizeQuality; fill-rule:evenodd; clip-rule:evenodd" xmlns:xlink="http://www.w3.org/1999/xlink">
<g><path style="opacity:1" fill="#fefefe" d="M -0.5,-0.5 C 74.5,-0.5 149.5,-0.5 224.5,-0.5C 224.5,74.5 224.5,149.5 224.5,224.5C 149.5,224.5 74.5,224.5 -0.5,224.5C -0.5,149.5 -0.5,74.5 -0.5,-0.5 Z"/></g>
<g><path style="opacity:1" fill="#d81b60" d="M 99.5,6.5 C 144.222,4.11017 178.722,21.4435 203,58.5C 224.817,100.413 221.817,140.413 194,178.5C 161.515,214.321 122.015,225.154 75.5,211C 34.3627,193.845 11.5294,163.012 7,118.5C 6.81399,65.6843 31.314,29.8509 80.5,11C 87.0061,9.67008 93.3394,8.17008 99.5,6.5 Z"/></g>
<g><path style="opacity:1" fill="#fefcfd" d="M 159.5,161.5 C 150.682,162.493 141.682,162.827 132.5,162.5C 122.164,147.989 111.997,133.322 102,118.5C 98.6667,121.833 95.3333,125.167 92,128.5C 91.5001,140.162 91.3335,151.829 91.5,163.5C 84.5,163.5 77.5,163.5 70.5,163.5C 70.5,129.167 70.5,94.8333 70.5,60.5C 77.5,60.5 84.5,60.5 91.5,60.5C 91.3334,74.504 91.5001,88.504 92,102.5C 105.201,88.9675 118.034,75.1341 130.5,61C 139.833,60.3333 149.167,60.3333 158.5,61C 144.5,75 130.5,89 116.5,103C 130.72,122.618 145.054,142.118 159.5,161.5 Z"/></g>
<g><path style="opacity:1" fill="#ea99b0" d="M 159.5,161.5 C 160.043,161.56 160.376,161.893 160.5,162.5C 151.008,163.822 141.675,163.822 132.5,162.5C 141.682,162.827 150.682,162.493 159.5,161.5 Z"/></g>
</svg>
