<?xml version="1.0" standalone="no"?>
<!DOCTYPE svg PUBLIC "-//W3C//DTD SVG 20010904//EN"
 "http://www.w3.org/TR/2001/REC-SVG-20010904/DTD/svg10.dtd">
<svg version="1.0" xmlns="http://www.w3.org/2000/svg"
 width="840.000000pt" height="589.000000pt" viewBox="0 0 840.000000 589.000000"
 preserveAspectRatio="xMidYMid meet">

<g transform="translate(0.000000,589.000000) scale(0.100000,-0.100000)"
fill="#000000" stroke="none">
<path d="M4030 5470 c-604 -37 -1179 -299 -1615 -735 -217 -217 -347 -400
-485 -680 -174 -354 -246 -649 -257 -1045 -12 -451 72 -827 276 -1227 126
-247 263 -435 466 -638 516 -515 1211 -779 1937 -735 589 35 1115 255 1558
652 308 275 566 671 699 1073 297 892 84 1854 -564 2553 -84 90 -253 236 -369
319 -473 336 -1055 500 -1646 463z m-505 -804 c71 -32 126 -84 163 -153 56
-108 56 -101 62 -637 l5 -499 574 584 c316 321 597 602 625 623 134 102 281
126 410 65 69 -32 151 -111 182 -175 54 -111 40 -268 -36 -388 -47 -73 -92
-117 -652 -644 l-519 -487 38 -35 c613 -568 1186 -1109 1214 -1146 20 -27 50
-74 65 -104 26 -50 29 -64 29 -155 0 -89 -3 -107 -28 -160 -74 -159 -258 -248
-418 -202 -127 38 -147 56 -834 737 l-650 645 -5 -535 c-5 -515 -6 -537 -27
-592 -30 -79 -40 -95 -92 -151 -79 -85 -196 -125 -329 -114 -184 15 -299 119
-350 314 -16 63 -17 171 -17 1468 0 1310 1 1404 18 1465 42 153 122 251 239
289 109 35 239 30 333 -13z"/>
<path d="M3306 4384 c-14 -14 -16 -158 -16 -1439 0 -1281 2 -1425 16 -1439 18
-19 55 -21 72 -4 17 17 17 2869 0 2886 -17 17 -54 15 -72 -4z"/>
<path d="M5086 4253 c-437 -417 -1295 -1259 -1300 -1276 -3 -11 0 -30 7 -42 7
-11 342 -339 745 -729 630 -608 737 -707 759 -704 32 4 48 27 40 59 -4 14
-291 296 -722 708 -393 377 -715 688 -715 691 0 3 302 297 670 654 369 356
678 659 687 672 13 20 14 30 5 49 -22 48 -54 34 -176 -82z"/>
</g>
</svg>
